<?xml version="1.0" encoding="utf-8"?>
<svg viewBox="0 0 500 500" xmlns="http://www.w3.org/2000/svg" xmlns:bx="https://boxy-svg.com">
  <defs>
    <filter id="drop-shadow-filter-0" color-interpolation-filters="sRGB" x="-50%" y="-50%" width="200%" height="200%" bx:preset="drop-shadow 1 10 10 0 0.5 rgba(0,0,0,0.3)">
      <title>Drop shadow</title>
      <feGaussianBlur in="SourceAlpha" stdDeviation="0"/>
      <feOffset dx="10" dy="10"/>
      <feComponentTransfer result="offsetblur">
        <feFuncA id="spread-ctrl" type="linear" slope="1"/>
      </feComponentTransfer>
      <feFlood flood-color="rgba(0,0,0,0.3)"/>
      <feComposite in2="offsetblur" operator="in"/>
      <feMerge>
        <feMergeNode/>
        <feMergeNode in="SourceGraphic"/>
      </feMerge>
    </filter>
  </defs>
  <g transform="matrix(2.2840418815612793, 0, 0, 2.2840418815612793, 110.82820892333983, 155.77734375)" style="">
    <path d="M 119.647 41.253 C 119.647 74.137 93.359 100.795 60.932 100.795 C 28.505 100.795 2.217 74.137 2.217 41.253 C 2.217 8.369 28.505 -18.289 60.932 -18.289 C 93.359 -18.289 119.647 8.369 119.647 41.253 Z" style="filter: url('#drop-shadow-filter-0'); stroke-width: 10.5077px;"/>
    <g fill="none" stroke="#00ed00" transform="matrix(1, 0, 0, 1, -2.07276, -23.128405)">
      <path d="m104.45 64.381c0 23.21-18.554 42.025-41.442 42.025s-41.442-18.815-41.442-42.025 18.554-42.025 41.442-42.025 41.442 18.815 41.442 42.025z" opacity=".758" style="stroke: rgb(255, 255, 255); stroke-width: 1.31346px;"/>
      <path d="m90.977 64.381c0 15.664-12.522 28.362-27.968 28.362s-27.968-12.698-27.968-28.362 12.522-28.362 27.968-28.362c15.447 0 27.968 12.698 27.968 28.362z" opacity=".758" style="stroke: rgb(255, 255, 255); stroke-width: 1.31346px;"/>
      <path d="m77.316 64.381c0 8.0133-6.4058 14.509-14.308 14.509-7.902 0-14.308-6.496-14.308-14.509 0-8.0132 6.4058-14.509 14.308-14.509 7.902 0 14.308 6.496 14.308 14.509z" opacity=".758" style="stroke: rgb(255, 255, 255); stroke-width: 1.31346px;"/>
    </g>
    <g transform="matrix(1.2425, 0, 0, 1.2425, -17.35276, -1189.728394)" stroke="#00bf00" stroke-width=".2">
      <g fill="#0f0"/>
      <path d="m62.882 945.54v90.661" fill="none" style="stroke: rgb(255, 255, 255); stroke-width: 1.05711px;"/>
      <g fill="#0f0">
        <path d="m18.183 990.49l89.146 0.2525" style="stroke: rgb(255, 255, 255); stroke-width: 1.05711px;"/>
      </g>
    </g>
    <path d="M 116.657 41.253 C 116.657 84.754 70.22 111.943 33.07 90.192 C 15.828 80.098 5.207 61.442 5.207 41.253 C 5.207 -2.248 51.645 -29.437 88.795 -7.686 C 106.036 2.408 116.657 21.064 116.657 41.253 Z" fill="none" style="stroke: rgb(255, 255, 255); stroke-width: 1.31346px;"/>
  </g>
  <ellipse style="stroke: rgb(255, 255, 255); paint-order: stroke; fill: rgb(255, 0, 0);" cx="192.033" cy="174.396" rx="6.54" ry="6.54"/>
  <ellipse style="stroke: rgb(255, 255, 255); paint-order: stroke; fill: rgb(255, 0, 0);" cx="304.102" cy="226.417" rx="5.054" ry="5.054"/>
  <ellipse style="stroke: rgb(255, 255, 255); paint-order: stroke; fill: rgb(255, 0, 0);" cx="200.654" cy="339.972" rx="10.404" ry="10.404"/>
  <ellipse style="stroke: rgb(255, 255, 255); paint-order: stroke; fill: rgb(255, 0, 0);" cx="335.315" cy="324.812" rx="7.134" ry="7.134"/>
</svg>